<?xml version="1.0" standalone="no"?>
<!DOCTYPE svg PUBLIC "-//W3C//DTD SVG 20010904//EN"
 "http://www.w3.org/TR/2001/REC-SVG-20010904/DTD/svg10.dtd">
<svg version="1.0" xmlns="http://www.w3.org/2000/svg"
 width="200.000000pt" height="200.000000pt" viewBox="0 0 200.000000 200.000000"
 preserveAspectRatio="xMidYMid meet">
<metadata>
Created by potrace 1.14, written by Peter Selinger 2001-2017
</metadata>
<g transform="translate(0.000000,200.000000) scale(0.100000,-0.100000)"
fill="#000000" stroke="none">
<path d="M905 1964 c-378 -39 -710 -308 -823 -664 -37 -118 -46 -174 -45 -300
1 -441 288 -815 719 -936 38 -11 113 -18 212 -21 133 -5 164 -2 243 17 353 85
609 327 716 677 24 80 27 103 27 258 1 137 -3 184 -18 240 -98 362 -371 627
-731 709 -65 15 -235 26 -300 20z m310 -432 c50 -5 79 -10 65 -11 -14 -1 -20
-5 -14 -7 13 -6 6 -54 -8 -54 -5 0 -6 -4 -3 -10 3 -5 25 -10 47 -10 36 0 47
-6 90 -50 39 -39 47 -54 39 -64 -6 -7 -9 -20 -6 -28 4 -10 -2 -18 -17 -22
l-23 -6 25 -20 c16 -13 41 -20 70 -20 33 0 41 -3 30 -10 -11 -7 -7 -10 20 -11
l35 -2 -30 -6 c-16 -4 -46 -14 -65 -23 -19 -9 -43 -19 -54 -22 -15 -5 -16 -9
-6 -21 16 -19 4 -24 -80 -27 -79 -4 -85 -21 -10 -28 73 -8 53 -16 -88 -36 -71
-11 -58 -24 25 -25 80 -1 72 -14 -12 -19 -25 -2 -31 -4 -17 -7 26 -5 29 -18 6
-27 -9 -3 -14 -13 -10 -21 3 -8 1 -17 -5 -20 -14 -9 -1 -25 22 -25 10 0 19 -4
19 -10 0 -5 -24 -10 -53 -10 -30 0 -76 -7 -103 -15 -51 -15 -290 -21 -353 -9
-51 10 -24 24 47 24 61 0 77 13 27 22 -11 2 -20 10 -20 18 0 8 -4 18 -10 22
-5 4 -2 15 9 27 17 19 17 20 -11 24 -23 3 -21 4 12 7 22 1 54 6 70 10 23 6 12
8 -42 9 -68 1 -100 12 -69 24 8 3 46 9 85 13 81 8 106 24 37 24 -34 0 -46 4
-46 15 0 12 14 15 68 15 65 0 104 11 89 26 -12 12 14 34 42 34 15 0 36 7 47
15 10 8 33 15 49 16 17 1 -4 5 -45 10 -84 8 -248 1 -256 -12 -3 -5 10 -9 28
-9 l33 0 -30 -17 c-43 -23 -323 -23 -360 1 -13 9 -31 16 -40 16 -9 0 -13 5
-10 10 3 6 27 10 53 10 26 0 54 5 62 10 11 7 7 10 -17 10 -18 0 -33 4 -33 9 0
5 -9 11 -20 14 -26 7 -26 27 1 27 12 0 23 8 26 18 2 10 14 22 26 28 14 6 21
17 20 30 -1 12 7 30 17 39 26 24 25 45 -2 45 -48 0 11 23 132 51 25 6 49 15
55 20 5 5 41 9 80 9 46 0 65 3 55 10 -30 19 110 20 305 2z m30 -752 c4 -6 -18
-10 -60 -10 -49 0 -67 -4 -71 -15 -4 -8 -12 -15 -20 -15 -10 0 -8 -6 6 -20 11
-11 27 -20 37 -20 14 0 14 -2 -2 -20 -10 -11 -16 -21 -14 -23 2 -1 13 -7 24
-13 11 -6 21 -18 23 -27 3 -12 -14 -16 -93 -22 -103 -8 -125 -26 -44 -35 40
-5 42 -6 24 -17 -18 -11 -17 -12 16 -13 44 0 72 -19 59 -40 -7 -12 -45 -15
-212 -16 -112 -1 -188 0 -170 3 61 8 29 52 -40 54 -18 0 -27 3 -20 6 24 9 12
22 -25 25 -20 2 -38 9 -41 16 -3 9 20 12 92 12 61 0 96 4 96 11 0 20 -21 49
-35 49 -20 0 -19 20 3 36 16 13 16 13 0 14 -16 0 -58 33 -58 45 0 3 9 5 20 5
11 0 20 5 20 10 0 6 31 10 73 10 39 0 79 5 87 10 20 13 317 13 325 0z"/>
<path d="M953 1233 c9 -2 25 -2 35 0 9 3 1 5 -18 5 -19 0 -27 -2 -17 -5z"/>
</g>
</svg>
